<?xml version="1.0" encoding="UTF-8" standalone="no"?>
<svg
   height="16"
   viewBox="0 0 16 16"
   width="16"
   version="1.1"
   id="svg1"
   sodipodi:docname="RandomTimer.svg"
   inkscape:version="1.3.2 (091e20e, 2023-11-25)"
   xmlns:inkscape="http://www.inkscape.org/namespaces/inkscape"
   xmlns:sodipodi="http://sodipodi.sourceforge.net/DTD/sodipodi-0.dtd"
   xmlns="http://www.w3.org/2000/svg"
   xmlns:svg="http://www.w3.org/2000/svg">
  <defs
     id="defs1" />
  <sodipodi:namedview
     id="namedview1"
     pagecolor="#ffffff"
     bordercolor="#000000"
     borderopacity="0.25"
     inkscape:showpageshadow="2"
     inkscape:pageopacity="0.0"
     inkscape:pagecheckerboard="0"
     inkscape:deskcolor="#d1d1d1"
     inkscape:zoom="19.602863"
     inkscape:cx="0.28057126"
     inkscape:cy="6.2490872"
     inkscape:window-width="1512"
     inkscape:window-height="866"
     inkscape:window-x="408"
     inkscape:window-y="1257"
     inkscape:window-maximized="1"
     inkscape:current-layer="svg1" />
  <path
     d="M 1.4289337,1 A 0.59999999,1 0 0 0 0.82893379,2 c 0,1.5 0.58019991,2.625 1.12379991,3.66 0.456,0.87 0.8496,1.643 1.125,2.34 -0.2754,0.697 -0.6684,1.472 -1.125,2.342 C 1.4091337,11.377 0.82893379,12.5 0.82893379,14 a 0.59999999,1 0 0 0 0.59999991,1 h 6.0000001 a 0.59999999,1 0 0 0 0.5999999,-1 c 0,-1.5 -0.5802,-2.623 -1.1238,-3.658 -0.4559999,-0.87 -0.8496,-1.645 -1.125,-2.342 0.2754,-0.697 0.6684,-1.47 1.125,-2.34 0.5436,-1.035 1.1238,-2.16 1.1238,-3.66 A 0.59999999,1 0 0 0 7.4289338,1 Z M 6.4761338,3 C 6.3333337,3.44 6.2931337,3.79 6.0027336,4.342 5.4963338,5.306 4.8639337,6.314 4.4919337,7.552 A 0.59999999,1 0 0 0 4.4289337,8 0.59999999,1 0 0 0 4.3653337,7.553 C 3.9939337,6.314 3.3615336,5.306 2.8551337,4.342 2.5647336,3.789 2.5245337,3.441 2.3811337,3 Z"
     fill="#e0e0e0"
     id="path1"
     style="display:inline;stroke-width:0.774596" />
  <path
     style="font-weight:100;font-size:17.0501px;font-family:'.SF Compact Rounded';-inkscape-font-specification:'.SF Compact Rounded Thin';fill:#e0e0e0;stroke:#e0e0e0;stroke-width:1.42084"
     d="m 12.049261,9.1758941 q 0,0.1415292 0.08325,0.2331069 0.08325,0.091578 0.216456,0.091578 0.133204,0 0.208131,-0.091578 0.07493,-0.091578 0.08325,-0.2331069 0,-0.374636 0.08325,-0.7076458 0.08325,-0.3330097 0.357986,-0.6909952 0.283058,-0.3579855 0.865825,-0.7992235 0.541141,-0.407937 0.915777,-0.8158739 0.382961,-0.407937 0.582767,-0.8741507 0.208131,-0.4745389 0.208131,-1.0739565 0,-0.8158739 -0.399612,-1.398641 -0.399611,-0.5910924 -1.090607,-0.9074517 -0.68267,-0.3163592 -1.548495,-0.3163592 -0.674345,0 -1.198835,0.1665048 Q 10.892052,1.9162811 10.509091,2.1826889 9.9596251,2.5656501 9.7015425,3.106791 9.44346,3.6479319 9.44346,4.1807475 q 0,0.1498544 0.074927,0.2331069 0.074927,0.083252 0.1998058,0.083252 0.1082282,0 0.1831554,-0.066602 0.074927,-0.074927 0.091578,-0.2164564 0.024976,-0.2997088 0.1665049,-0.6576943 0.141529,-0.3579855 0.441238,-0.68267 0.299709,-0.3330098 0.782573,-0.5411409 0.482864,-0.2081311 1.19051,-0.2081311 0.674345,0 1.232136,0.2414321 0.566117,0.2414321 0.899126,0.7076457 0.341335,0.4662137 0.341335,1.1488838 0,0.7242962 -0.34966,1.2571118 -0.34966,0.5244904 -1.107257,1.090607 -0.641044,0.4911895 -0.974054,0.8991264 -0.33301,0.3996118 -0.449563,0.8075487 -0.116554,0.407937 -0.116554,0.8991264 z m -0.291383,3.5132529 q 0,0.249758 0.17483,0.432913 0.183155,0.17483 0.432913,0.17483 0.249757,0 0.432912,-0.17483 0.183156,-0.183155 0.183156,-0.432913 0,-0.258082 -0.183156,-0.432912 -0.183155,-0.183156 -0.432912,-0.183156 -0.249758,0 -0.432913,0.183156 -0.17483,0.17483 -0.17483,0.432912 z"
     id="text1"
     transform="scale(0.93052972,1.0746567)"
     aria-label="?" />
</svg>
